<?xml version="1.0" standalone="no"?>
<!DOCTYPE svg PUBLIC "-//W3C//DTD SVG 20010904//EN"
 "http://www.w3.org/TR/2001/REC-SVG-20010904/DTD/svg10.dtd">
<svg version="1.0" xmlns="http://www.w3.org/2000/svg"
 width="1800.000000pt" height="1800.000000pt" viewBox="0 0 1800.000000 1800.000000"
 preserveAspectRatio="xMidYMid meet">

<g transform="translate(0.000000,1800.000000) scale(0.100000,-0.100000)"
fill="#000000" stroke="none">
<path d="M13455 15114 c-198 -7 -540 -20 -760 -28 l-400 -15 -135 -138 c-74
-76 -316 -322 -538 -548 -288 -293 -398 -411 -385 -413 10 -1 77 -8 148 -15
l130 -12 3 -133 c3 -132 2 -134 -22 -153 -35 -27 -44 -83 -21 -125 16 -30 17
-44 6 -166 -6 -73 -14 -151 -17 -172 l-6 -39 50 36 c27 20 52 37 56 37 3 0 25
-14 48 -30 23 -17 43 -28 46 -25 3 2 -1 76 -8 163 -12 145 -12 162 4 204 16
41 16 48 3 81 -9 19 -25 41 -37 47 -21 11 -21 16 -18 190 1 98 5 177 8 175 3
-2 16 -26 29 -53 l23 -50 77 -6 c136 -12 122 0 192 -159 34 -78 68 -157 76
-176 l14 -33 45 63 c250 356 618 584 1044 649 89 13 342 14 420 1 30 -5 56 -8
57 -7 2 2 -23 62 -55 136 l-57 133 -110 -6 c-215 -12 -465 -81 -667 -183 -70
-35 -69 -30 3 26 77 59 216 138 331 186 98 42 280 91 373 100 37 4 75 14 86
23 22 19 339 433 339 444 0 4 -3 6 -7 6 -5 -1 -170 -8 -368 -15z"/>
<path d="M13170 14154 c-411 -52 -778 -277 -1007 -619 -88 -131 -167 -323
-204 -495 -32 -149 -32 -410 0 -554 65 -287 186 -512 381 -706 212 -213 475
-348 768 -396 61 -10 175 -14 383 -14 l296 0 21 -23 c28 -29 28 -76 2 -105
-21 -22 -21 -22 -464 -22 -474 0 -529 -4 -610 -48 -148 -81 -211 -279 -136
-429 35 -70 101 -135 168 -166 46 -21 61 -22 535 -27 469 -5 489 -6 503 -24
18 -26 18 -66 -2 -94 -15 -22 -17 -22 -302 -22 -320 0 -372 -7 -452 -61 -25
-17 -63 -54 -83 -82 -125 -169 -64 -407 128 -498 l60 -29 298 0 c290 0 300 1
329 21 32 23 58 73 58 111 0 37 -34 90 -71 110 -30 16 -61 18 -301 18 l-267 0
-20 26 c-24 30 -26 43 -10 77 20 44 43 47 354 47 277 0 298 1 352 22 123 46
203 167 203 308 0 130 -59 230 -172 291 l-63 34 -493 5 -494 5 -19 24 c-23 28
-24 60 -5 87 14 18 34 19 503 24 l488 5 62 29 c196 90 265 336 142 505 -17 24
-27 46 -22 50 4 4 49 34 98 67 54 35 134 102 201 169 198 197 315 407 381 688
24 99 27 133 27 297 1 203 -10 274 -66 443 -138 415 -471 748 -886 887 -142
47 -234 62 -402 65 -85 2 -171 1 -190 -1z m430 -298 c113 -30 181 -57 275
-110 360 -202 575 -571 575 -986 0 -522 -347 -960 -867 -1092 -75 -20 -113
-23 -263 -23 -159 1 -184 3 -275 28 -341 93 -641 356 -759 665 -58 150 -78
256 -79 412 -1 173 15 264 73 418 138 367 461 634 855 707 123 22 343 14 465
-19z"/>
<path d="M12678 12315 c-34 -19 -53 -72 -38 -110 24 -64 183 -190 323 -255
117 -55 206 -73 367 -73 128 0 155 3 233 27 96 28 183 69 264 123 76 50 181
153 189 187 15 62 -50 127 -111 112 -14 -4 -38 -20 -53 -37 -15 -17 -54 -53
-87 -79 -199 -158 -457 -197 -691 -105 -92 37 -161 83 -244 160 -74 70 -100
78 -152 50z"/>
<path d="M6999 10583 c-76 -120 -207 -329 -293 -465 -86 -136 -156 -249 -156
-252 0 -4 165 -6 368 -6 l367 0 358 310 c196 171 357 314 357 318 0 5 -343
129 -855 309 -5 2 -71 -95 -146 -214z"/>
<path d="M8830 8555 l0 -2095 485 0 485 0 0 415 0 414 162 171 c88 94 165 169
170 168 10 -4 66 -101 462 -808 104 -184 194 -341 200 -348 9 -9 134 -12 582
-10 l571 3 -145 235 c-962 1567 -1003 1633 -1000 1641 3 8 623 656 981 1025
70 72 127 134 127 138 0 3 -245 6 -544 6 -502 0 -546 -2 -564 -18 -11 -9 -136
-141 -278 -292 -392 -418 -551 -587 -641 -680 l-83 -85 0 1108 0 1107 -485 0
-485 0 0 -2095z"/>
<path d="M1780 10415 c0 -3 40 -79 88 -168 49 -89 110 -202 137 -252 26 -49
61 -115 78 -145 16 -30 44 -82 62 -115 18 -33 62 -114 98 -180 60 -112 186
-345 768 -1423 l229 -424 0 -624 0 -624 495 0 495 0 2 643 3 642 141 260 c78
143 394 733 704 1310 309 578 568 1060 576 1071 7 12 10 24 7 28 -4 3 -228 6
-498 6 l-492 0 -158 -292 c-87 -161 -216 -399 -286 -528 -293 -542 -489 -904
-492 -907 -4 -3 11 -30 -732 1312 -104 187 -199 357 -212 378 l-23 37 -495 0
c-272 0 -495 -2 -495 -5z"/>
<path d="M6890 9534 c-454 -42 -810 -211 -1068 -508 -299 -344 -419 -843 -331
-1376 89 -533 430 -942 932 -1119 182 -64 336 -90 577 -98 526 -17 922 108
1265 398 44 37 94 82 110 99 l30 32 -255 248 -254 247 -83 -67 c-144 -115
-275 -181 -436 -217 -101 -22 -319 -22 -412 0 -234 58 -415 229 -501 476 l-23
66 1072 5 1072 5 3 145 c9 438 -94 826 -293 1105 -73 103 -211 242 -300 304
-173 120 -383 200 -620 236 -99 15 -398 27 -485 19z m345 -691 c230 -57 392
-264 412 -525 l6 -78 -612 0 -611 0 0 24 c0 44 51 200 88 271 70 133 218 260
352 304 101 32 247 34 365 4z"/>
<path d="M13285 9534 c-540 -44 -961 -263 -1231 -640 -170 -238 -250 -494
-261 -834 -11 -337 37 -576 162 -818 223 -430 615 -699 1148 -789 149 -25 550
-25 702 1 597 99 1056 469 1225 986 63 193 75 280 74 550 0 214 -3 258 -22
347 -64 295 -184 527 -373 720 -306 314 -694 468 -1204 478 -93 1 -192 1 -220
-1z m381 -799 c238 -80 411 -302 455 -586 7 -44 9 -134 6 -224 -5 -171 -30
-275 -95 -400 -54 -103 -183 -231 -282 -278 -102 -49 -218 -71 -340 -64 -162
9 -287 60 -396 160 -104 95 -164 193 -211 344 -26 83 -27 99 -27 283 -1 209 7
256 61 385 90 215 281 371 497 406 94 15 246 3 332 -26z"/>
</g>
</svg>
